<svg id="flag" xmlns="http://www.w3.org/2000/svg" style="height: 761.231px;"><rect width="1353.3" height="761.233" x="0" y="0" fill="rgb(51, 115, 33)"></rect><rect width="1353.3" height="380.6165" x="0" y="380.6165" fill="rgb(51, 115, 33)"></rect><rect width="1353.3" height="190.30825" x="0" y="570.9247499999999" fill="rgb(51, 115, 33)"></rect><rect width="1353.3" height="135.33" x="0" y="312.95149999999995" fill="rgb(255, 255, 255)"></rect><rect width="135.33" height="761.233" x="608.985" y="0" fill="rgb(255, 255, 255)"></rect><g transform="translate(676.65,380.6165) rotate(0) scale(4.2290625)"><path d="M -20.4375 -58.25 A 312 312 0 0 1 -15.71875 -15.6875 A 312 312 0 0 1 -58.375 -20.4375 A 165 165 0 0 1 -58.375 20.4375 A 312 312 0 0 1 -15.71875 15.71875 A 312 312 0 0 1 -20.4375 58.25 A 165 165 0 0 1 20.4375 58.25 A 312 312 0 0 1 15.71875 15.71875 A 312 312 0 0 1 58.125 20.4375 A 165 165 0 0 1 58.125 -20.4375 A 312 312 0 0 1 15.71875 -15.71875 A 312 312 0 0 1 20.4375 -58.25 A 165 165 0 0 1 -20.4375 -58.25 z" fill="rgb(255, 255, 255)"></path></g><ellipse rx="169.1625" ry="166.51971874999998" cx="676.65" cy="380.6165" fill="rgb(255, 255, 255)"></ellipse><ellipse rx="101.49749999999999" ry="104.6695375" cx="676.65" cy="380.6165" fill="rgb(254, 221, 0)"></ellipse><ellipse rx="76.123125" ry="80.88100625" cx="676.65" cy="380.6165" fill="rgb(255, 255, 255)"></ellipse><g transform="translate(676.65,380.6165) rotate(0) scale(0.61673828125)"><path d="m 0,-100 24,68 H 96 L 40,12 60,80 0,40 -60,80 -40,12 -96,-32 h 72 z" fill="rgb(254, 221, 0)"></path></g></svg>