<svg id="flag" xmlns="http://www.w3.org/2000/svg" style="height: 761.231px;"><rect width="1362" height="761.233" x="0" y="0" fill="rgb(242, 78, 0)"></rect><polygon points="0,0 1362,761.233 1362,0 0,761.233" fill="rgb(255, 255, 255)"></polygon><polygon points="68.10000000000001,0 0,0 0,38.06165 1293.9,761.233 1362,761.233 1362,723.17135 68.10000000000001,0" fill="rgb(0, 136, 255)"></polygon><polygon points="1293.9,0 1362,0 1362,38.06165 68.10000000000001,761.233 0,761.233 0,723.17135 1293.9,0" fill="rgb(0, 136, 255)"></polygon><ellipse rx="161.73749999999998" ry="161.7620125" cx="681" cy="380.6165" fill="rgb(0, 136, 255)"></ellipse><ellipse rx="110.66250000000001" ry="109.42724374999999" cx="681" cy="380.6165" fill="rgb(255, 255, 255)"></ellipse><g transform="translate(681,380.6165) rotate(0) scale(0.6509558823529412)"><path d="m -84.597632,50.751078 c 0,46.69434 37.87143,84.567312 84.567302,84.567312 46.697027,0 84.567302,-37.869242 84.567302,-84.567312 0,-33.826901 -21.141835,-38.055276 -21.141835,-50.74034243 0,-12.68512357 12.685105,-29.59858457 -12.685087,-50.74039957 12.685087,21.141815 -8.456748,25.370171 -8.456748,46.5120061 0,21.1418349 8.456748,21.1418349 8.456748,38.0552949 0,9.339965 -7.573116,16.913441 -16.913478,16.913441 -9.341025,0 -16.913442,-7.577223 -16.913442,-16.913441 0,-16.91346 16.913442,-33.82690143 16.913442,-59.19713 0,-25.370171 -4.228356,-33.826902 -16.913442,-54.968737 -12.6851044,-21.14184 -33.826901,-38.05528 -16.91346,-54.96874 -25.370172,8.45673 -12.685105,42.283635 -12.685105,63.42547 0,21.141836 -16.91346,33.826921 -16.91346,59.197112 0,25.37019 12.685124,29.598565 12.685124,46.512025 0,9.339965 -7.573155,16.913441 -16.913499,16.913441 -9.341007,0 -16.913461,-7.577223 -16.913461,-16.913441 0,-16.91346 8.456731,-16.91346 8.456731,-38.0552949 0,-21.1418351 -21.141814,-25.3701911 -8.456731,-46.5120061 -25.370171,21.141815 -12.685083,38.055276 -12.685083,50.74039957 0,12.68506643 -21.141818,16.91344143 -21.141818,50.74034243 z" fill="rgb(198, 12, 48)"></path></g></svg>