<?xml version="1.0" encoding="UTF-8" standalone="no"?>
<!-- Created with Inkscape (http://www.inkscape.org/) -->

<svg
   width="768"
   height="512"
   viewBox="0 0 203.2 135.46667"
   version="1.1"
   id="svg1"
   inkscape:version="1.4 (e7c3feb100, 2024-10-09)"
   sodipodi:docname="map.svg"
   xmlns:inkscape="http://www.inkscape.org/namespaces/inkscape"
   xmlns:sodipodi="http://sodipodi.sourceforge.net/DTD/sodipodi-0.dtd"
   xmlns="http://www.w3.org/2000/svg"
   xmlns:svg="http://www.w3.org/2000/svg">
  <sodipodi:namedview
     id="namedview1"
     pagecolor="#ffffff"
     bordercolor="#000000"
     borderopacity="0.25"
     inkscape:showpageshadow="2"
     inkscape:pageopacity="0.0"
     inkscape:pagecheckerboard="0"
     inkscape:deskcolor="#d1d1d1"
     inkscape:document-units="mm"
     showgrid="true"
     inkscape:zoom="1.63"
     inkscape:cx="334.96933"
     inkscape:cy="-52.147239"
     inkscape:window-width="1920"
     inkscape:window-height="1010"
     inkscape:window-x="0"
     inkscape:window-y="0"
     inkscape:window-maximized="1"
     inkscape:current-layer="svg1">
    <inkscape:grid
       id="grid10"
       units="px"
       originx="0"
       originy="0"
       spacingx="2.1166668"
       spacingy="2.1166668"
       empcolor="#0099e5"
       empopacity="0.30196078"
       color="#0099e5"
       opacity="0.14901961"
       empspacing="4"
       enabled="true"
       visible="true" />
  </sodipodi:namedview>
  <defs
     id="defs1" />
  <g
     inkscape:groupmode="layer"
     id="layer2"
     inkscape:label="world">
    <path
       style="fill:#008000;stroke-width:0.264583"
       d="m 75.739923,78.551613 -2.108769,-2.020903 -1.054386,2.81169 -2.81169,0.615058 -3.426748,3.514614 -1.405845,3.77821 -2.987421,0.615056 -3.690345,-0.790787 -2.020903,3.251018 -0.52719,4.656862 2.108766,3.338883 c 0,0 0.878655,6.502036 1.230117,6.589896 0.351459,0.0879 1.757307,2.2845 1.757307,2.2845 l -0.439328,2.72383 4.217535,-0.0879 8.610804,-3.16315 1.49371,2.63596 -2.635959,5.44765 5.711246,10.10452 2.108769,-0.5272 1.845172,3.51462 -2.723825,1.7573 1.933036,3.07529 3.602479,-0.43932 6.326306,-9.31373 2.196632,-6.8535 5.271921,-0.52719 v -2.72383 l -2.548094,-1.66944 -0.08786,-2.98742 8.34721,0.61506 2.5481,-2.63596 1.31798,-2.37236 v -1.75731 l -3.77821,0.35146 v -1.84517 l 3.69034,-4.569001 1.40584,-4.305401 -0.35145,-2.108769 h -7.82002 l -2.460235,2.372366 0.263597,2.635959 2.284498,2.284499 -0.87865,2.372366 -2.196638,2.020901 -0.878652,-1.405846 0.351462,-3.163152 -0.790789,-1.230114 -3.075287,-0.351462 -5.623382,6.414174 -2.284497,-1.31798 -0.08787,-2.460235 3.866073,-0.615055 1.405845,-1.493711 0.702924,-2.899558 5.535517,-3.075286 1.31798,-2.460228 -1.845173,-1.142252 -2.723824,0.79079 -0.08787,-3.866076 -6.238441,-5.62338 z"
       id="path15" />
    <path
       style="fill:#008000;stroke-width:0.264583"
       d="m 130.22485,31.313609 -0.12426,-2.485207 -10.18935,-1.366864 -0.6213,2.360946 -2.60947,-1.491123 -0.24852,-5.094675 -4.22485,-3.976331 0.86982,-6.585799 -1.8639,-0.745562 -2.36095,1.615385 -4.59763,-0.621302 0.6213,5.343195 -7.704144,4.846154 c 0,0 -2.609466,-3.106509 -2.485207,-3.106509 0.124261,0 2.112428,-5.094675 2.112428,-5.094675 l -0.869823,-2.982248 -5.715977,-1.242603 -4.970414,5.591715 -7.331361,0.497042 -2.982248,3.106509 -5.094674,-0.248521 -0.621303,7.455622 -2.112425,0.994082 c 0,0 -1.491125,11.307691 -1.118343,11.307691 0.372779,0 -4.970415,1.491126 -4.970415,1.491126 l 0.372782,3.727809 -11.431953,1.863905 0.6213,2.982249 1.863905,4.224853 -0.6213,2.857987 -2.485207,0.372782 1.118343,3.230769 2.857987,-0.124259 3.230769,8.325442 6.46154,5.343195 5.840235,-2.982249 10.437871,0.124262 1.118343,-2.609469 2.982249,-0.248521 1.366864,3.10651 2.733728,0.745562 0.745561,-1.988164 c 0,0 11.556214,2.609466 12.301779,3.106507 0.74556,0.497041 3.97633,3.976333 3.97633,3.976333 l 2.73372,0.6213 4.59764,-2.609466 4.84615,0.372779 3.47929,4.721894 6.33728,-3.106507 3.35503,2.112425 0.49704,2.982249 -1.98816,0.994082 -13.54438,-1.739644 -2.73373,3.72781 -1.36687,9.443786 2.23669,3.10651 -1.36686,3.852072 1.8639,2.60947 3.10651,0.37278 3.97633,-3.60355 4.34911,-0.74556 6.46154,6.46153 7.2071,0.12426 2.36095,-4.47337 4.47337,-1.49112 4.7219,5.46745 4.59763,-0.74556 2.36095,4.59763 -5.21894,2.11243 1.36687,2.73373 12.79881,-5.71598 2.73373,-4.10059 3.10651,0.12426 4.97041,-11.183433 7.57989,-2.982248 7.08284,3.72781 1.73964,-3.355028 4.10059,-0.621303 -2.85799,-4.597632 -3.35503,0.372779 -3.23077,-2.360946 -0.6213,-4.721894 -11.05917,-4.721892 -6.08876,-13.91716 -4.22485,1.366864 -1.98816,-2.857989 c 0,0 1.61538,-2.112426 2.11242,-2.236685 0.49705,-0.124261 0.12426,-3.479291 0.12426,-3.479291 l -3.10651,-0.869821 -0.49704,-3.479292 6.21302,-5.218935 -2.60947,-4.100589 -13.29585,-13.917161 -1.24261,-3.727811 h -2.73373 l -3.47929,4.100592 -12.05325,1.739645 z"
       id="path16" />
  </g>
  <g
     id="g1"
     inkscape:label="country4">
    <path
       style="fill:#39ff6d;stroke-width:0.264583;fill-opacity:1"
       d="m 26.886794,6.9413617 -1.845172,2.0209028 -0.08787,2.1527005 8.303276,8.39114 4.612928,-0.263596 2.899558,1.054384 0.131797,1.274048 -8.435072,1.010451 -2.064835,3.646412 -1.713376,-2.064836 -2.240565,1.801239 c 0,0 -3.602479,-1.142249 -3.558546,-1.31798 0.04393,-0.17573 -0.65899,3.382816 -0.65899,3.382816 l -6.589901,2.98742 3.338883,2.460231 -4.876526,3.382815 -0.04393,4.393268 -5.8869775,7.820014 c 0,0 2.5920275,2.196635 2.7238255,2.240566 0.131798,0.04393 2.064835,6.809565 2.064835,6.809565 l 4.173604,-1.49371 c 0,0 4.525065,2.460228 4.568998,2.416297 0.04393,-0.04393 4.788662,0.04393 4.788662,0.04393 l 3.338882,1.142249 3.734277,-3.953939 2.899555,4.041804 1.845173,-1.054383 0.746855,-3.997873 3.470682,-4.4372 4.832594,-1.054383 -1.669442,-7.512486 10.192377,-6.809565 -0.08786,-3.119218 -4.173603,-0.1318 -2.240569,-11.598224 -3.163152,1.274047 -4.525062,-8.742601 -2.811693,1.625509 c 0,0 -12.125418,-7.9078806 -11.993618,-7.8200153 z"
       id="path13"
       sodipodi:nodetypes="cccccccccccsccccccsccsccccccccccccccccsc" />
  </g>
  <g
     inkscape:groupmode="layer"
     id="layer3"
     inkscape:label="country1" />
  <g
     inkscape:groupmode="layer"
     id="layer4"
     inkscape:label="country2">
    <path
       style="opacity:0.5;fill:#ffff00;stroke-width:0.264583"
       d="m 100.93167,89.048478 -2.045299,3.289743 -0.102596,2.578647 1.541655,1.636581 0.17435,3.126911 -2.760697,1.70083 -0.510413,-3.78549 -0.499385,-1.822481 -3.192116,-0.588957 -5.780746,6.234008 -2.324811,-1.05827 0.08079,-2.938885 4.168636,-0.294812 1.228652,-1.51861 0.841838,-2.758157 5.394398,-3.102115 1.317621,-2.52327 -1.897854,-1.184976 -2.908392,0.562811 0.320228,-3.887956 -6.529959,-5.724381 -12.240594,1.39764 -1.573874,-2.264305 -1.056927,3.48031 -3.716996,0.594495 -2.393869,2.635418 -1.667418,4.924695 -7.007437,-0.585835 -1.628738,3.353882 -0.643858,4.954984 1.925749,2.927108 1.188446,6.812159 2.271316,1.3635 -0.605745,3.16507 4.656362,-0.0741 8.014319,-2.85014 1.890128,3.07058 -3.273852,4.96051 6.31947,10.17956 2.311177,-0.51173 0.987941,3.55755 -2.607987,1.18332 2.09932,3.51599 c 0,0 4.124138,-0.56658 4.030595,-0.3795 -0.09354,0.18709 5.906609,-9.05969 5.906609,-9.05969 l 2.15152,-6.99065 5.780508,-1.19131 -0.324642,-3.08124 -2.699237,-0.81161 -0.269385,-2.8452 9.259429,0.16621 3.43362,-4.20844 -0.0765,-2.10199 -3.62416,-0.4412 -0.59059,-1.68341 4.22574,-3.316955 1.02348,-4.636817 -0.21188,-2.629948 z"
       id="path18"
       sodipodi:nodetypes="cccccccccccccccccccccccccccccccccccccccccccsccccccccccccccc" />
  </g>
  <g
     inkscape:groupmode="layer"
     id="layer5"
     inkscape:label="country3">
    <path
       style="opacity:0.5;fill:#ff0000;stroke-width:0.264583"
       d="m 96.471497,15.148646 -1.526873,4.506719 2.290686,3.331207 3.0052,-1.045515 2.3662,12.476287 9.03455,2.581301 -7.7439,5.377709 3.82312,0.913221 -4.68356,3.819164 4.9475,11.400745 -2.58131,1.50576 -1.07554,-3.871953 -3.01151,1.075542 0.64532,2.796411 -2.796408,-1.075542 -1.720868,2.151083 3.336156,1.984803 -2.69083,2.532474 1.93598,1.935974 -2.475731,4.2573 -8.980446,-2.108856 -0.987122,2.0851 -3.106536,-0.709987 -1.595497,-3.449655 -2.498161,0.220388 -0.808965,3.233225 -10.693394,-0.302208 -5.900307,2.953451 -6.490368,-5.674133 -2.898581,-8.093263 -3.12946,-0.126823 -0.76789,-2.876121 2.329017,-0.31229 0.374742,-2.741654 -2.645964,-7.476007 11.66468,-1.62849 0.0084,-3.563921 4.642125,-1.246323 0.77397,-11.614966 2.344912,-1.013739 0.581073,-7.491342 5.792083,-0.214896 2.343246,-2.647631 7.363786,-0.963292 4.715626,-5.496767 6.244652,1.422153 z"
       id="path19"
       sodipodi:nodetypes="ccccccccccccccccccccccccccccccccccccccccccccccc" />
  </g>
  <g
     inkscape:groupmode="layer"
     id="layer7"
     inkscape:label="country5">
    <path
       style="opacity:0.5;fill:#ff6600;stroke-width:0.264583"
       d="m 110.86528,12.226867 2.35564,1.030673 -0.96733,6.135208 3.9894,3.54335 0.36555,5.145446 2.70668,2.557545 0.38799,-3.03923 9.90554,0.847237 0.95809,3.258299 2.48892,-3.355955 4.82872,-1.030674 2.5813,7.098578 2.15109,-0.645325 0.21511,-2.366192 2.36619,1.505757 3.87195,9.034555 -5.59282,0.215106 -2.36619,9.894988 -2.5813,0.215109 2.15108,3.441734 -2.15108,0.860433 -0.43022,6.238142 h -3.01151 V 57.86416 h -4.08707 l 1.72087,2.581299 -7.95901,3.226628 -1.72087,-2.151084 -1.72086,2.581299 -4.30217,-3.656843 -0.64533,7.098577 3.22663,3.01152 -4.08706,4.302167 -4.20562,0.0369 -3.82126,2.389479 -3.21155,-0.582783 -3.42193,-3.709631 -3.684558,-1.29593 3.287328,-4.366833 -2.581299,-1.290648 3.011519,-2.581301 -3.011519,-2.151084 1.50576,-2.366192 2.366189,0.215109 -0.64532,-2.366193 3.22662,-0.645327 1.50576,3.871953 2.19991,-1.396227 -4.78121,-11.725387 4.51728,-3.656843 -3.44174,-0.860433 7.31369,-5.592818 -9.46477,-2.686875 -2.04753,-12.837696 4.60121,-2.447196 -0.56832,-5.400687 4.63681,0.29515 z"
       id="path21"
       sodipodi:nodetypes="cccccccccccccccccccccccccccccccccccccccccccccccccccccccccc" />
  </g>
  <g
     inkscape:groupmode="layer"
     id="layer8"
     inkscape:label="country6">
    <path
       style="opacity:0.5;fill:#16f5ff;stroke-width:0.264583;fill-opacity:1"
       d="m 117.15093,75.07811 3.10523,5.008197 6.52187,-3.20287 2.82676,1.732745 2.47177,-2.682917 0.86043,3.011516 2.5813,1.935978 2.15108,-2.366193 h 2.58131 l -1.50576,-2.581301 h 3.22662 l 0.43022,-3.226626 3.22662,-0.215109 -1.83436,3.332202 3.55523,1.400183 1.50576,-3.011519 2.3662,0.860436 0.86043,4.087058 6.88347,1.935977 0.86043,-2.79641 h 2.15108 l -0.43021,2.581302 3.87195,-1.935978 -3.65685,-2.796407 2.15109,-3.226626 -1.29065,-3.226628 10.06127,-3.445692 -2.80013,-5.029102 -4.20109,0.352674 -2.12445,-2.128752 2.74246,-2.503109 0.19504,-3.38073 -3.35856,-1.142479 -0.54886,-3.035375 6.01074,-5.270243 -2.78027,-4.660061 -13.05903,-13.901216 -0.93741,-3.097942 -3.13689,-0.434175 -3.34539,3.895706 -7.67001,1.83436 3.22663,7.313686 2.15109,-1.075544 v -2.581299 l 2.25269,1.720866 3.17384,8.653165 -4.78121,0.596496 -2.96269,9.302449 -1.9848,0.807645 1.72086,3.226628 -2.15108,1.720866 -0.0567,5.264219 -3.54731,-0.05279 0.59253,-5.211431 -3.87195,0.645327 1.72087,2.36619 -8.17412,3.441734 -1.72087,-1.935975 -2.36619,2.366193 -3.65684,-3.441734 -1.29065,6.883468 3.65684,2.366193 -4.51728,4.517276 z"
       id="path22"
       sodipodi:nodetypes="cccccccccccccccccccccccccccccccccccccccccccccccccccccccccccccccc" />
  </g>
  <g
     inkscape:groupmode="layer"
     id="layer9"
     inkscape:label="country7">
    <path
       style="opacity:0.5;fill:#800080;stroke-width:0.264583"
       d="m 175.62809,74.272443 11.84944,5.135548 0.34471,5.220422 3.53068,1.916448 3.51866,-0.06096 2.19984,3.787982 -3.77021,0.912106 -1.71709,3.250628 -7.45565,-3.724323 -6.96233,3.066344 -5.51203,11.264422 -3.12949,0.52976 -2.82499,3.78277 -12.63264,5.72883 -1.2097,-3.10068 5.42522,-1.86051 -2.80826,-4.8239 -4.5536,0.27075 -4.77789,-5.33419 -3.94719,1.78556 -2.37246,4.38712 -7.36364,-0.0293 -6.17271,-5.85659 -5.23231,0.005 -3.55672,4.04279 -3.34907,-0.25659 -1.56479,-2.73854 1.23327,-4.051386 -2.22173,-2.538077 1.70503,-9.589881 2.41107,-4.180756 12.82256,2.033732 2.49368,-0.962151 -0.52854,-3.072222 2.6849,-3.494522 0.64533,3.226625 2.68885,2.043531 2.04353,-2.581302 h 2.79641 l -1.61331,-2.581298 3.11907,0.107553 0.43022,-3.334182 3.33417,-0.430215 -1.29064,3.549288 3.01151,1.505759 1.39821,-2.79641 2.5813,0.537771 0.64532,4.30217 7.20614,1.935975 0.43021,-2.688855 2.25864,-0.107556 -0.21511,2.688857 3.7644,-2.151086 -3.65685,-2.796407 2.15109,-3.334182 -1.1831,-3.011516 10.1084,-3.651013 z"
       id="path23"
       sodipodi:nodetypes="cccccccccccccccccccccccccccccccccccccccccccccccccccccccccc" />
  </g>
</svg>
