<?xml version="1.0" encoding="UTF-8" standalone="no"?>
<!-- Created with Inkscape (http://www.inkscape.org/) -->

<svg
   width="768"
   height="512"
   viewBox="0 0 203.2 135.46667"
   version="1.1"
   id="svg1"
   inkscape:version="1.4 (e7c3feb100, 2024-10-09)"
   sodipodi:docname="map_nobg.svg"
   xmlns:inkscape="http://www.inkscape.org/namespaces/inkscape"
   xmlns:sodipodi="http://sodipodi.sourceforge.net/DTD/sodipodi-0.dtd"
   xmlns="http://www.w3.org/2000/svg"
   xmlns:svg="http://www.w3.org/2000/svg">
  <sodipodi:namedview
     id="namedview1"
     pagecolor="#ffffff"
     bordercolor="#000000"
     borderopacity="0.25"
     inkscape:showpageshadow="2"
     inkscape:pageopacity="0.0"
     inkscape:pagecheckerboard="0"
     inkscape:deskcolor="#d1d1d1"
     inkscape:document-units="mm"
     showgrid="true"
     inkscape:zoom="2.16"
     inkscape:cx="323.61111"
     inkscape:cy="185.18519"
     inkscape:window-width="1920"
     inkscape:window-height="1010"
     inkscape:window-x="0"
     inkscape:window-y="0"
     inkscape:window-maximized="1"
     inkscape:current-layer="layer8">
    <inkscape:grid
       id="grid10"
       units="px"
       originx="0"
       originy="0"
       spacingx="2.1166668"
       spacingy="2.1166668"
       empcolor="#0099e5"
       empopacity="0.30196078"
       color="#0099e5"
       opacity="0.14901961"
       empspacing="4"
       enabled="true"
       visible="true" />
  </sodipodi:namedview>
  <defs
     id="defs1" />
  <g
     inkscape:groupmode="layer"
     id="layer2"
     inkscape:label="world" />
  <g
     id="g1"
     inkscape:label="country4">
    <path
       style="fill:#39ff6d;fill-opacity:1;stroke-width:0.264583"
       d="m 26.886794,6.9413617 -1.845172,2.0209028 -0.08787,2.1527005 8.303276,8.39114 4.612928,-0.263596 2.899558,1.054384 0.131797,1.274048 -8.435072,1.010451 -2.064835,3.646412 -1.713376,-2.064836 -2.240565,1.801239 c 0,0 -3.602479,-1.142249 -3.558546,-1.31798 0.04393,-0.17573 -0.65899,3.382816 -0.65899,3.382816 l -6.589901,2.98742 3.338883,2.460231 -4.876526,3.382815 -0.04393,4.393268 -5.8869775,7.820014 c 0,0 2.5920275,2.196635 2.7238255,2.240566 0.131798,0.04393 2.064835,6.809565 2.064835,6.809565 l 4.173604,-1.49371 c 0,0 4.525065,2.460228 4.568998,2.416297 0.04393,-0.04393 4.788662,0.04393 4.788662,0.04393 l 3.338882,1.142249 3.734277,-3.953939 2.899555,4.041804 1.845173,-1.054383 0.746855,-3.997873 3.470682,-4.4372 4.832594,-1.054383 -1.669442,-7.512486 10.192377,-6.809565 -0.08786,-3.119218 -4.173603,-0.1318 -2.240569,-11.598224 -3.163152,1.274047 -4.525062,-8.742601 -2.811693,1.625509 c 0,0 -12.125418,-7.9078806 -11.993618,-7.8200153 z"
       id="path13"
       sodipodi:nodetypes="cccccccccccsccccccsccsccccccccccccccccsc" />
  </g>
  <g
     inkscape:groupmode="layer"
     id="layer3"
     inkscape:label="country1" />
  <g
     inkscape:groupmode="layer"
     id="layer4"
     inkscape:label="country2">
    <path
       style="opacity:0.5;fill:#ffff00;stroke-width:0.264583"
       d="m 100.93167,89.048478 -2.045299,3.289743 -0.102596,2.578647 1.541655,1.636581 0.17435,3.126911 -2.760697,1.70083 -0.510413,-3.78549 -0.499385,-1.822481 -3.192116,-0.588957 -5.780746,6.234008 -2.324811,-1.05827 0.08079,-2.938885 4.168636,-0.294812 1.228652,-1.51861 0.841838,-2.758157 5.394398,-3.102115 1.317621,-2.52327 -1.897854,-1.184976 -2.908392,0.562811 0.320228,-3.887956 -6.529959,-5.724381 -12.240594,1.39764 -1.573874,-2.264305 -1.056927,3.48031 -3.716996,0.594495 -2.393869,2.635418 -1.667418,4.924695 -7.007437,-0.585835 -1.628738,3.353882 -0.643858,4.954984 1.925749,2.927108 1.188446,6.812159 2.271316,1.3635 -0.605745,3.16507 4.656362,-0.0741 8.014319,-2.85014 1.890128,3.07058 -3.273852,4.96051 6.31947,10.17956 2.311177,-0.51173 0.987941,3.55755 -2.607987,1.18332 2.09932,3.51599 c 0,0 4.124138,-0.56658 4.030595,-0.3795 -0.09354,0.18709 5.906609,-9.05969 5.906609,-9.05969 l 2.15152,-6.99065 5.780508,-1.19131 -0.324642,-3.08124 -2.699237,-0.81161 -0.269385,-2.8452 9.259429,0.16621 3.43362,-4.20844 -0.0765,-2.10199 -3.62416,-0.4412 -0.59059,-1.68341 4.22574,-3.316955 1.02348,-4.636817 -0.21188,-2.629948 z"
       id="path18"
       sodipodi:nodetypes="cccccccccccccccccccccccccccccccccccccccccccsccccccccccccccc" />
  </g>
  <g
     inkscape:groupmode="layer"
     id="layer5"
     inkscape:label="country3">
    <path
       style="opacity:0.5;fill:#ff0000;stroke-width:0.264583"
       d="m 96.471497,15.148646 -1.526873,4.506719 2.290686,3.331207 3.0052,-1.045515 2.3662,12.476287 9.03154,2.339323 -7.13444,5.54003 3.21667,0.992878 -4.35892,3.656843 4.62286,11.563066 -2.09435,1.668081 -1.5625,-4.034274 -3.01151,1.075542 0.40034,2.061457 -2.551428,-0.340588 -0.909263,2.313404 2.686871,1.984803 -2.528508,2.370153 2.098298,1.611332 -2.962691,4.581942 -8.980446,-2.108856 -0.987122,2.0851 -3.106536,-0.709987 -1.595497,-3.449655 -2.498161,0.220388 -0.808965,3.233225 -10.693394,-0.302208 -5.900307,2.953451 -6.490368,-5.674133 -2.898581,-8.093263 -3.12946,-0.126823 -0.76789,-2.876121 2.329017,-0.31229 0.374742,-2.741654 -2.645964,-7.476007 11.66468,-1.62849 0.0084,-3.563921 4.642125,-1.246323 0.77397,-11.614966 2.344912,-1.013739 0.581073,-7.491342 5.792083,-0.214896 2.343246,-2.647631 7.363786,-0.963292 4.715626,-5.496767 6.244652,1.422153 z"
       id="path19"
       sodipodi:nodetypes="ccccccccccccccccccccccccccccccccccccccccccccccc" />
  </g>
  <g
     inkscape:groupmode="layer"
     id="layer7"
     inkscape:label="country5">
    <path
       style="opacity:0.5;fill:#ff6905;fill-opacity:1;stroke-width:0.264583"
       d="m 110.86528,12.226867 2.35564,1.030673 -0.96733,6.135208 3.9894,3.54335 0.36555,5.145446 2.70668,2.557545 0.38799,-3.03923 9.90554,0.847237 0.95809,3.258299 2.48892,-3.355955 4.82872,-1.030674 2.5813,7.098578 2.15109,-0.645325 0.21511,-2.366192 2.36619,1.505757 3.87195,9.034555 -5.59282,0.215106 -2.36619,9.894988 -2.5813,0.215109 2.15108,3.441734 -2.15108,0.860433 -0.43022,6.238142 h -3.01151 V 57.86416 h -4.08707 l 1.72087,2.581299 -7.95901,3.226628 -1.72087,-2.151084 -1.72086,2.581299 -4.30217,-3.656843 -0.64533,7.098577 2.73967,2.686878 -3.6001,4.626809 -4.20562,0.0369 -3.82126,2.389479 -3.21155,-0.582783 -3.42193,-3.709631 -3.439573,-1.29593 3.042343,-4.366833 -2.09133,-1.903109 2.52155,-2.213825 -2.766534,-2.028591 1.260775,-2.2437 2.366189,0.215109 -0.76781,-1.876224 3.34911,-1.135296 1.50576,3.871953 2.19991,-1.396227 -4.78121,-11.725387 4.51728,-3.656843 -3.44174,-0.860433 7.31369,-5.592818 -9.14013,-2.362233 -2.37217,-13.162338 4.60121,-2.447196 -0.56832,-5.400687 4.63681,0.29515 z"
       id="path21"
       sodipodi:nodetypes="cccccccccccccccccccccccccccccccccccccccccccccccccccccccccc" />
  </g>
  <g
     inkscape:groupmode="layer"
     id="layer8"
     inkscape:label="country6">
    <path
       style="opacity:0.5;fill:#2af5ff;fill-opacity:1;stroke-width:0.264583"
       d="m 117.15093,75.07811 3.10523,5.008197 6.52187,-3.20287 2.82676,1.732745 2.47177,-2.682917 0.86043,3.011516 2.5813,1.935978 2.15108,-2.366193 h 2.58131 l -1.50576,-2.581301 h 3.22662 l 0.43022,-3.226626 3.22662,-0.215109 -1.83436,3.332202 3.55523,1.400183 1.50576,-3.011519 2.3662,0.860436 0.86043,4.087058 6.88347,1.935977 0.86043,-2.79641 h 2.15108 l -0.43021,2.581302 3.87195,-1.935978 -3.65685,-2.796407 2.15109,-3.226626 -1.29065,-3.226628 10.06127,-3.445692 -2.80013,-5.029102 -4.20109,0.352674 -2.12445,-2.128752 2.74246,-2.503109 0.19504,-3.38073 -3.35856,-1.142479 -0.54886,-3.035375 6.01074,-5.270243 -2.78027,-4.660061 -13.05903,-13.901216 -0.93741,-3.097942 -3.13689,-0.434175 -3.34539,3.895706 -7.67001,1.83436 3.22663,7.313686 2.15109,-1.075544 v -2.581299 l 2.25269,1.720866 3.17384,8.653165 -4.78121,0.596496 -2.96269,9.302449 -1.9848,0.807645 1.72086,3.226628 -2.47572,0.74694 0.26794,6.238145 -2.89803,0.109531 -0.0567,-5.373752 -3.87195,0.645327 1.72087,2.36619 -8.49876,3.117092 -1.39623,-1.611333 -2.36619,2.366193 -3.49452,-4.41566 -1.45297,7.857394 3.65684,2.366193 -4.51728,4.517276 z"
       id="path22"
       sodipodi:nodetypes="cccccccccccccccccccccccccccccccccccccccccccccccccccccccccccccccc" />
  </g>
  <g
     inkscape:groupmode="layer"
     id="layer9"
     inkscape:label="country7">
    <path
       style="opacity:0.5;fill:#800080;stroke-width:0.264583"
       d="m 175.62809,74.272443 11.84944,5.135548 0.34471,5.220422 3.53068,1.916448 3.51866,-0.06096 2.19984,3.787982 -3.77021,0.912106 -1.71709,3.250628 -7.45565,-3.724323 -6.96233,3.066344 -5.51203,11.264422 -3.12949,0.52976 -2.82499,3.78277 -12.63264,5.72883 -1.2097,-3.10068 5.42522,-1.86051 -2.80826,-4.8239 -4.5536,0.27075 -4.77789,-5.33419 -3.94719,1.78556 -2.37246,4.38712 -7.36364,-0.0293 -6.17271,-5.85659 -5.23231,0.005 -3.55672,4.04279 -3.34907,-0.25659 -1.56479,-2.73854 1.23327,-4.051386 -2.22173,-2.538077 1.70503,-9.589881 2.41107,-4.180756 12.82256,2.033732 2.49368,-0.962151 -0.52854,-3.072222 2.6849,-3.494522 0.64533,3.226625 2.68885,2.043531 2.04353,-2.581302 h 2.79641 l -1.61331,-2.581298 3.11907,0.107553 0.43022,-3.334182 3.33417,-0.430215 -1.29064,3.549288 3.01151,1.505759 1.39821,-2.79641 2.5813,0.537771 0.64532,4.30217 7.20614,1.935975 0.43021,-2.688855 2.25864,-0.107556 -0.21511,2.688857 3.7644,-2.151086 -3.65685,-2.796407 2.15109,-3.334182 -1.1831,-3.011516 10.1084,-3.651013 z"
       id="path23"
       sodipodi:nodetypes="cccccccccccccccccccccccccccccccccccccccccccccccccccccccccc" />
  </g>
</svg>
