<?xml version="1.0" encoding="UTF-8" standalone="no"?>
<!-- Created with Inkscape (http://www.inkscape.org/) -->

<svg
   width="768"
   height="512"
   viewBox="0 0 203.2 135.46667"
   version="1.1"
   id="svg1"
   inkscape:version="1.3.2 (091e20ef0f, 2023-11-25)"
   sodipodi:docname="map.svg"
   xmlns:inkscape="http://www.inkscape.org/namespaces/inkscape"
   xmlns:sodipodi="http://sodipodi.sourceforge.net/DTD/sodipodi-0.dtd"
   xmlns="http://www.w3.org/2000/svg"
   xmlns:svg="http://www.w3.org/2000/svg">
  <sodipodi:namedview
     id="namedview1"
     pagecolor="#ffffff"
     bordercolor="#000000"
     borderopacity="0.25"
     inkscape:showpageshadow="2"
     inkscape:pageopacity="0.0"
     inkscape:pagecheckerboard="0"
     inkscape:deskcolor="#d1d1d1"
     inkscape:document-units="mm"
     showgrid="true"
     inkscape:zoom="1.63"
     inkscape:cx="206.44172"
     inkscape:cy="193.55828"
     inkscape:window-width="1920"
     inkscape:window-height="1008"
     inkscape:window-x="0"
     inkscape:window-y="0"
     inkscape:window-maximized="1"
     inkscape:current-layer="layer7">
    <inkscape:grid
       id="grid10"
       units="px"
       originx="0"
       originy="0"
       spacingx="2.1166668"
       spacingy="2.1166668"
       empcolor="#0099e5"
       empopacity="0.30196078"
       color="#0099e5"
       opacity="0.14901961"
       empspacing="4"
       enabled="true"
       visible="true" />
  </sodipodi:namedview>
  <defs
     id="defs1" />
  <g
     inkscape:groupmode="layer"
     id="layer2"
     inkscape:label="world">
    <path
       style="fill:#008000;stroke-width:0.264583"
       d="m 50.456671,7.2269241 -2.482197,1.5815762 c 0,0 0.483259,2.4821957 0.461293,2.3943307 -0.02196,-0.08787 1.933038,0.505225 1.933038,0.505225 l 1.801239,-1.383879 z"
       id="path11" />
    <path
       style="fill:#008000;stroke-width:0.264583"
       d="m 48.36987,13.00407 -2.196634,0.988485 1.933038,1.515677 c 0,0 0.175731,-2.548095 0.263596,-2.504162 z"
       id="path12" />
    <path
       style="fill:#008000;stroke-width:0.264583"
       d="m 26.886794,6.9413617 -1.845172,2.0209028 -0.08787,2.1527005 8.303276,8.39114 4.612928,-0.263596 2.899558,1.054384 0.131797,1.274048 -8.435072,1.010451 -2.064835,3.646412 -1.713376,-2.064836 -2.240565,1.801239 c 0,0 -3.602479,-1.142249 -3.558546,-1.31798 0.04393,-0.17573 -0.65899,3.382816 -0.65899,3.382816 l -6.589901,2.98742 3.338883,2.460231 -4.876526,3.382815 -0.04393,4.393268 -5.8869775,7.820014 c 0,0 2.5920275,2.196635 2.7238255,2.240566 0.131798,0.04393 2.064835,6.809565 2.064835,6.809565 l 4.173604,-1.49371 c 0,0 4.525065,2.460228 4.568998,2.416297 0.04393,-0.04393 4.788662,0.04393 4.788662,0.04393 l 3.338882,1.142249 3.734277,-3.953939 2.899555,4.041804 1.845173,-1.054383 0.746855,-3.997873 3.470682,-4.4372 4.832594,-1.054383 -1.669442,-7.512486 10.192377,-6.809565 -0.08786,-3.119218 -4.173603,-0.1318 -2.240569,-11.598224 -3.163152,1.274047 -4.525062,-8.742601 -2.811693,1.625509 c 0,0 -12.125418,-7.9078806 -11.993618,-7.8200153 z"
       id="path13" />
    <path
       style="fill:#008000;stroke-width:0.264583"
       d="m 91.621582,1.4937107 c 0,0 -1.427813,2.5041622 -1.405845,2.5041622 0.02196,0 1.603542,1.2740473 1.603542,1.2740473 L 94.059845,4.3493343 93.752317,2.4162968 Z"
       id="path14" />
    <path
       style="fill:#008000;stroke-width:0.264583"
       d="m 75.739923,78.551613 -2.108769,-2.020903 -1.054386,2.81169 -2.81169,0.615058 -3.426748,3.514614 -1.405845,3.77821 -2.987421,0.615056 -3.690345,-0.790787 -2.020903,3.251018 -0.52719,4.656862 2.108766,3.338883 c 0,0 0.878655,6.502036 1.230117,6.589896 0.351459,0.0879 1.757307,2.2845 1.757307,2.2845 l -0.439328,2.72383 4.217535,-0.0879 8.610804,-3.16315 1.49371,2.63596 -2.635959,5.44765 5.711246,10.10452 2.108769,-0.5272 1.845172,3.51462 -2.723825,1.7573 1.933036,3.07529 3.602479,-0.43932 6.326306,-9.31373 2.196632,-6.8535 5.271921,-0.52719 v -2.72383 l -2.548094,-1.66944 -0.08786,-2.98742 8.34721,0.61506 2.5481,-2.63596 1.31798,-2.37236 v -1.75731 l -3.77821,0.35146 v -1.84517 l 3.69034,-4.569001 1.40584,-4.305401 -0.35145,-2.108769 h -7.82002 l -2.460235,2.372366 0.263597,2.635959 2.284498,2.284499 -0.87865,2.372366 -2.196638,2.020901 -0.878652,-1.405846 0.351462,-3.163152 -0.790789,-1.230114 -3.075287,-0.351462 -5.623382,6.414174 -2.284497,-1.31798 -0.08787,-2.460235 3.866073,-0.615055 1.405845,-1.493711 0.702924,-2.899558 5.535517,-3.075286 1.31798,-2.460228 -1.845173,-1.142252 -2.723824,0.79079 -0.08787,-3.866076 -6.238441,-5.62338 z"
       id="path15" />
    <path
       style="fill:#008000;stroke-width:0.264583"
       d="m 130.22485,31.313609 -0.12426,-2.485207 -10.18935,-1.366864 -0.6213,2.360946 -2.60947,-1.491123 -0.24852,-5.094675 -4.22485,-3.976331 0.86982,-6.585799 -1.8639,-0.745562 -2.36095,1.615385 -4.59763,-0.621302 0.6213,5.343195 -7.704144,4.846154 c 0,0 -2.609466,-3.106509 -2.485207,-3.106509 0.124261,0 2.112428,-5.094675 2.112428,-5.094675 l -0.869823,-2.982248 -5.715977,-1.242603 -4.970414,5.591715 -7.331361,0.497042 -2.982248,3.106509 -5.094674,-0.248521 -0.621303,7.455622 -2.112425,0.994082 c 0,0 -1.491125,11.307691 -1.118343,11.307691 0.372779,0 -4.970415,1.491126 -4.970415,1.491126 l 0.372782,3.727809 -11.431953,1.863905 0.6213,2.982249 1.863905,4.224853 -0.6213,2.857987 -2.485207,0.372782 1.118343,3.230769 2.857987,-0.124259 3.230769,8.325442 6.46154,5.343195 5.840235,-2.982249 10.437871,0.124262 1.118343,-2.609469 2.982249,-0.248521 1.366864,3.10651 2.733728,0.745562 0.745561,-1.988164 c 0,0 11.556214,2.609466 12.301779,3.106507 0.74556,0.497041 3.97633,3.976333 3.97633,3.976333 l 2.73372,0.6213 4.59764,-2.609466 4.84615,0.372779 3.47929,4.721894 6.33728,-3.106507 3.35503,2.112425 0.49704,2.982249 -1.98816,0.994082 -13.54438,-1.739644 -2.73373,3.72781 -1.36687,9.443786 2.23669,3.10651 -1.36686,3.852072 1.8639,2.60947 3.10651,0.37278 3.97633,-3.60355 4.34911,-0.74556 6.46154,6.46153 7.2071,0.12426 2.36095,-4.47337 4.47337,-1.49112 4.7219,5.46745 4.59763,-0.74556 2.36095,4.59763 -5.21894,2.11243 1.36687,2.73373 12.79881,-5.71598 2.73373,-4.10059 3.10651,0.12426 4.97041,-11.183433 7.57989,-2.982248 7.08284,3.72781 1.73964,-3.355028 4.10059,-0.621303 -2.85799,-4.597632 -3.35503,0.372779 -3.23077,-2.360946 -0.6213,-4.721894 -11.05917,-4.721892 -6.08876,-13.91716 -4.22485,1.366864 -1.98816,-2.857989 c 0,0 1.61538,-2.112426 2.11242,-2.236685 0.49705,-0.124261 0.12426,-3.479291 0.12426,-3.479291 l -3.10651,-0.869821 -0.49704,-3.479292 6.21302,-5.218935 -2.60947,-4.100589 -13.29585,-13.917161 -1.24261,-3.727811 h -2.73373 l -3.47929,4.100592 -12.05325,1.739645 z"
       id="path16" />
  </g>
  <g
     inkscape:groupmode="layer"
     id="layer3"
     inkscape:label="country1">
    <path
       style="display:inline;opacity:0.5;fill:#1a1a1a;stroke-width:0.264583"
       d="m -0.15732645,73.404283 0.15950439,4.461671 -0.06508861,6.847273 16.31160567,-0.05648 4.74274,0.01036 6.5106,0.271149 4.022405,1.777341 2.057976,-4.864303 2.61924,4.864303 2.151521,-1.870884 0.654809,-4.583674 c 0,0 2.899876,-4.77076 3.274052,-4.77076 0.374179,0 5.144939,-0.935445 5.144939,-0.935445 L 45.55609,67.726096 44.152925,61.645715 44.340015,57.062044 48.736599,52.85255 49.297865,50.888116 48.820658,44.527102 61.458628,36.01457 61.365082,0.09354433 0.09354433,0.18708867 -0.09354433,48.830142 0.09354433,65.761665 Z"
       id="path17"
       sodipodi:nodetypes="cccccccccccsccccccccccccc" />
  </g>
  <g
     inkscape:groupmode="layer"
     id="layer4"
     inkscape:label="country2">
    <path
       style="opacity:0.5;fill:#ffff00;stroke-width:0.264583"
       d="m 103.36649,82.880278 -12.347853,-8.325445 -13.376841,0.748356 -5.144937,-1.777342 -16.136398,7.483547 -8.886711,-6.454561 -5.238482,1.028989 -3.274052,4.77076 -0.654812,4.49013 -2.104748,1.870884 -2.61924,-4.864303 -2.057976,4.864303 -4.546168,-2.207558 -27.03900452,0.300038 -0.0469902,20.530154 0.17803919,7.08047 0.32762299,11.58915 -0.55134521,10.91492 0.41124721,0.5617 33.62330654,0.028 6.725924,-0.24182 2.273521,-0.0638 2.703735,-0.16855 c 0,0 3.199041,-6.8826 3.105498,-6.69552 -0.09354,0.18709 -16.807783,7.29515 -16.807783,7.29515 l 15.058024,-0.0927 2.825737,-0.38366 1.075542,0.29055 h 67.585784 l 6.5481,-12.90911 -14.96709,-12.72203 V 86.809142 Z"
       id="path18"
       sodipodi:nodetypes="cccccccccccccccccccccccsccccccccc" />
  </g>
  <g
     inkscape:groupmode="layer"
     id="layer5"
     inkscape:label="country3">
    <path
       style="fill:#ff0000;stroke-width:0.264583;opacity:0.5"
       d="m 106.04844,0.2151084 -6.883468,15.0575876 1.075538,6.668361 2.3662,12.476287 9.03455,2.581301 -7.7439,5.377709 3.01151,1.075542 -3.87195,3.656843 4.9475,11.400745 -2.58131,1.50576 -1.07554,-3.871953 -3.01151,1.075542 0.64532,2.796411 -2.796408,-1.075542 -1.720868,2.151083 3.011516,2.796408 -2.36619,1.720869 1.93598,1.935974 -2.151089,2.796411 -0.215108,8.604334 -6.66836,-4.732385 -13.982047,1.075545 -4.517276,-2.151087 -16.13313,8.17412 -9.249661,-6.66836 -3.226625,-12.476287 0.430215,-5.162603 5.162603,-5.377709 -0.860433,-7.313686 12.476286,-7.959011 0.430218,-36.1382096 z"
       id="path19" />
  </g>
  <g
     inkscape:groupmode="layer"
     id="layer6"
     inkscape:label="country4" />
  <g
     inkscape:groupmode="layer"
     id="layer7"
     inkscape:label="country5">
    <path
       style="opacity:0.5;fill:#ff6600;stroke-width:0.264583"
       d="m 105.83333,0.2151084 12.90651,-0.4302168 12.47628,0.4302168 8.81945,0.21510841 -2.15109,26.88854919 2.5813,7.098578 2.15109,-0.645325 0.21511,-2.366192 2.36619,1.505757 3.87195,9.034555 -5.59282,0.215106 -2.36619,9.894988 -2.5813,0.215109 2.15108,3.441734 -2.15108,0.860433 -0.43022,6.238142 h -3.01151 V 57.86416 h -4.08707 l 1.72087,2.581299 -7.95901,3.226628 -1.72087,-2.151084 -1.72086,2.581299 -4.30217,-3.656843 -0.64533,7.098577 3.22663,3.01152 -4.08706,4.302167 -11.40075,8.174119 -6.668356,-3.871952 0.860435,-9.249661 2.151081,-2.581302 -2.581299,-1.290648 3.011519,-2.581301 -3.011519,-2.151084 1.50576,-2.366192 2.366189,0.215109 -0.64532,-2.366193 3.22662,-0.645327 1.50576,3.871953 3.01152,-1.720869 -5.59282,-11.400745 4.51728,-3.656843 -3.44174,-0.860433 7.31369,-5.592818 -9.46477,-3.011517 -3.441736,-18.92954 z"
       id="path21"
       sodipodi:nodetypes="ccccccccccccccccccccccccccccccccccccccccccccccc" />
  </g>
  <g
     inkscape:groupmode="layer"
     id="layer8"
     inkscape:label="country6">
    <path
       style="opacity:0.5;fill:#0000ff;stroke-width:0.264583"
       d="m 104.32757,83.031842 5.37772,3.87195 4.08705,-7.098576 7.7439,1.505758 7.74391,-1.720866 2.79641,-3.656843 0.86043,3.011516 2.5813,1.935978 2.15108,-2.366193 h 2.58131 l -1.50576,-2.581301 h 3.22662 l 0.43022,-3.226626 3.22662,-0.215109 -0.86043,3.656844 2.5813,1.075541 1.50576,-3.011519 2.3662,0.860436 0.86043,4.087058 6.88347,1.935977 0.86043,-2.79641 h 2.15108 l -0.43021,2.581302 3.87195,-1.935978 -3.65685,-2.796407 2.15109,-3.226626 -1.29065,-3.226628 9.24966,-2.796408 31.62093,-11.185636 -0.2151,-55.49796855 -26.67345,0.21510936 h -36.78353 l -2.15109,27.31876719 3.22663,7.313686 2.15109,-1.075544 v -2.581299 l 3.22662,1.720866 3.01152,9.46477 -5.59282,-0.215109 -2.15108,9.46477 -2.79641,0.645324 1.72086,3.226628 -2.15108,1.720866 0.43022,6.238145 -3.87195,-0.215109 0.43021,-6.023036 -3.87195,0.645327 1.72087,2.36619 -8.17412,3.441734 -1.72087,-1.935975 -2.36619,2.366193 -3.65684,-3.441734 -1.29065,6.883468 3.65684,2.366193 -4.51728,4.517276 z"
       id="path22"
       sodipodi:nodetypes="cccccccccccccccccccccccccccccccccccccccccccccccccccccccc" />
  </g>
  <g
     inkscape:groupmode="layer"
     id="layer9"
     inkscape:label="country7">
    <path
       style="fill:#800080;stroke-width:0.264583;opacity:0.5"
       d="M 203.38499,55.605521 V 135.7334 l -85.29048,-0.21511 6.99102,-12.9065 -15.38025,-12.47629 0.32267,-24.092141 3.87195,-6.453251 8.17412,1.720866 6.77591,-1.935975 3.33418,-3.656843 0.64533,3.226625 2.68885,2.043531 2.04353,-2.581302 h 2.79641 l -1.61331,-2.581298 3.11907,0.107553 0.43022,-3.334182 3.33417,-0.430215 -1.29064,3.549288 3.01151,1.505759 1.39821,-2.79641 2.5813,0.537771 0.64532,4.30217 7.20614,1.935975 0.43021,-2.688855 2.25864,-0.107556 -0.21511,2.688857 3.7644,-2.151086 -3.65685,-2.796407 2.15109,-3.334182 -1.1831,-3.011516 z"
       id="path23" />
  </g>
</svg>
